<svg width="20" height="22" viewBox="0 0 20 22" fill="none" xmlns="http://www.w3.org/2000/svg">
<path d="M6.13234 3.91017H6.77687V5.2422C6.77687 5.59845 7.06514 5.88673 7.4214 5.88673H9.99952C10.3558 5.88673 10.6441 5.59845 10.6441 5.2422V3.91017H11.2886C11.5491 3.91017 11.7846 3.75346 11.884 3.51236C11.9841 3.27131 11.9287 2.99433 11.7443 2.80991L9.16614 0.188815C8.91439 -0.0629385 8.50649 -0.0629385 8.25473 0.188815L5.67661 2.80991C5.49219 2.99433 5.4368 3.27126 5.53688 3.51236C5.63635 3.75346 5.87177 3.91017 6.13234 3.91017Z" fill="#F8C02D"/>
<path d="M14.5112 11.6875C11.6635 11.6875 9.35498 13.996 9.35498 16.8437C9.35498 19.6914 11.6635 22 14.5112 22C17.359 22 19.6675 19.6914 19.6675 16.8437C19.6675 13.996 17.359 11.6875 14.5112 11.6875ZM15.5913 19.1633C15.4516 19.2331 15.3053 19.2881 15.1555 19.3297V19.5078C15.1555 19.8637 14.867 20.1523 14.511 20.1523C14.1551 20.1523 13.8665 19.8637 13.8665 19.5078V19.3498C13.5982 19.2823 13.348 19.1687 13.136 19.0098C12.8513 18.7962 12.7935 18.3922 13.0071 18.1074C13.2207 17.8227 13.6247 17.7649 13.9095 17.9785C14.1673 18.1719 14.6631 18.1862 15.0147 18.0104C15.1561 17.9397 15.2323 17.8546 15.2323 17.8105C15.2323 17.7334 15.2323 17.7215 15.1466 17.6757C14.9784 17.5859 14.681 17.5308 14.3935 17.4775C14.0095 17.4062 13.6125 17.3326 13.2685 17.149C12.7662 16.8808 12.5006 16.441 12.5006 15.8769C12.5006 15.3122 12.8393 14.819 13.4297 14.5238C13.5697 14.4538 13.7164 14.3984 13.8665 14.3568V14.1796C13.8665 13.8237 14.1551 13.5351 14.511 13.5351C14.867 13.5351 15.1555 13.8237 15.1555 14.1796V14.3375C15.4239 14.4051 15.6741 14.5187 15.886 14.6777C16.1708 14.8912 16.2285 15.2952 16.0149 15.58C15.8013 15.8647 15.3974 15.9225 15.1126 15.7089C14.8544 15.5152 14.3581 15.5009 14.0062 15.6768C13.864 15.7478 13.7897 15.8312 13.7897 15.8769C13.7897 15.954 13.7897 15.9659 13.8755 16.0117C14.0436 16.1015 14.341 16.1566 14.6286 16.21C15.0125 16.2812 15.4095 16.3549 15.7535 16.5385C16.2558 16.8066 16.5214 17.2465 16.5214 17.8105C16.5214 18.3747 16.1824 18.8677 15.5913 19.1633Z" fill="#24272C"/>
<path d="M3.5542 9.10938H15.1558C15.5117 9.10938 15.8003 8.8208 15.8003 8.46484V7.82031C15.8003 7.46436 15.5117 7.17578 15.1558 7.17578H3.5542C3.19825 7.17578 2.90967 7.46436 2.90967 7.82031V8.46484C2.90967 8.8208 3.19825 9.10938 3.5542 9.10938Z" fill="#24272C"/>
<path d="M1.62061 20.7109V21.3555C1.62061 21.7114 1.90918 22 2.26514 22H10.6839C9.98469 21.4794 9.40358 20.8226 8.9625 20.0664H2.26514C1.90918 20.0664 1.62061 20.355 1.62061 20.7109Z" fill="#24272C"/>
<path d="M1.62061 14.2656V14.9102C1.62061 15.2661 1.90918 15.5547 2.26514 15.5547H8.1962C8.33812 14.8583 8.61514 14.2166 8.9625 13.6211H2.26514C1.90918 13.6211 1.62061 13.9097 1.62061 14.2656Z" fill="#24272C"/>
<path d="M0.976074 18.7773H8.39502C8.19998 18.163 8.06592 17.5218 8.06592 16.8438H0.976074C0.620121 16.8438 0.331543 17.1323 0.331543 17.4883V18.1328C0.331543 18.4888 0.620121 18.7773 0.976074 18.7773Z" fill="#24272C"/>
<path d="M0.976074 12.332H9.91998C11.0901 11.1414 12.7141 10.3984 14.5112 10.3984H0.976074C0.620121 10.3984 0.331543 10.687 0.331543 11.043V11.6875C0.331543 12.0435 0.620121 12.332 0.976074 12.332Z" fill="#24272C"/>
</svg>
