<svg width="22" height="22" viewBox="0 0 22 22" fill="none" xmlns="http://www.w3.org/2000/svg">
<path d="M8.22236 7.46032L6.88411 6.19555C7.03998 5.91236 7.1364 5.59172 7.1364 5.24581C7.1364 4.14955 6.24845 3.2616 5.15172 3.2616C4.055 3.2616 3.16564 4.14909 3.16564 5.24581C3.16564 6.34253 4.055 7.23096 5.15172 7.23096C5.53836 7.23096 5.89598 7.11581 6.20117 6.92483L7.53755 8.18819C7.73977 7.92092 7.96772 7.67611 8.22236 7.46032Z" fill="#202020"/>
<path d="M13.8829 7.30209L15.6612 4.30963C15.8362 4.35971 16.0178 4.39575 16.2084 4.39575C17.307 4.39575 18.1949 3.50733 18.1949 2.4106C18.1949 1.31435 17.307 0.426392 16.2084 0.426392C15.1116 0.426392 14.2241 1.31388 14.2241 2.4106C14.2241 2.95499 14.4437 3.44694 14.7985 3.80597L13.0258 6.79001C13.3306 6.92809 13.618 7.10035 13.8829 7.30209Z" fill="#202020"/>
<path d="M20.0158 9.80725C19.162 9.80725 18.4388 10.3498 18.1584 11.1062L15.6879 10.8623C15.6879 10.881 15.6907 10.8988 15.6907 10.9171C15.6907 11.2391 15.6551 11.5537 15.591 11.8575L18.0606 12.1013C18.2099 13.0487 19.0258 13.7752 20.0158 13.7752C21.112 13.7752 21.9995 12.8877 21.9995 11.7915C21.9995 10.6957 21.112 9.80725 20.0158 9.80725Z" fill="#202020"/>
<path d="M13.1981 17.6112L12.6458 15.1978C12.334 15.3063 12.0096 15.3841 11.6712 15.4229L12.2245 17.8368C11.5902 18.1687 11.1526 18.8245 11.1526 19.5903C11.1526 20.6865 12.0401 21.5735 13.1387 21.5735C14.2349 21.5735 15.1224 20.6861 15.1224 19.5903C15.1238 18.5141 14.2663 17.643 13.1981 17.6112Z" fill="#202020"/>
<path d="M6.71981 11.8752L3.64449 12.9055C3.28968 12.3635 2.67883 12.004 1.98372 12.004C0.887001 12.004 -0.000488281 12.8919 -0.000488281 13.9882C-0.000488281 15.0858 0.887001 15.9738 1.98372 15.9738C3.07951 15.9738 3.96934 15.0858 3.96934 13.9882C3.96934 13.9423 3.95951 13.9002 3.95577 13.8552L7.04092 12.8222C6.9019 12.5221 6.79143 12.2062 6.71981 11.8752Z" fill="#202020"/>
<path d="M11.154 14.3206C13.0337 14.3206 14.5574 12.7968 14.5574 10.9171C14.5574 9.03745 13.0337 7.51367 11.154 7.51367C9.27431 7.51367 7.75053 9.03745 7.75053 10.9171C7.75053 12.7968 9.27431 14.3206 11.154 14.3206Z" fill="#F8C02D"/>
</svg>
