<svg width="19" height="20" viewBox="0 0 19 20" fill="none" xmlns="http://www.w3.org/2000/svg">
<path d="M11.7778 9.15735C10.9556 9.70676 9.98891 10 9 10C7.67433 9.99866 6.40334 9.47144 5.46595 8.53405C4.52856 7.59666 4.00134 6.32567 4 5C4 4.0111 4.29325 3.0444 4.84265 2.22215C5.39206 1.3999 6.17295 0.759042 7.08658 0.380604C8.00021 0.00216629 9.00555 -0.0968502 9.97545 0.0960759C10.9454 0.289002 11.8363 0.765206 12.5355 1.46447C13.2348 2.16373 13.711 3.05465 13.9039 4.02455C14.0969 4.99445 13.9978 5.99979 13.6194 6.91342C13.241 7.82705 12.6001 8.60794 11.7778 9.15735Z" fill="#F8C02D"/>
<path d="M11.2903 11H7.52387C5.52903 11.002 3.61648 11.7954 2.20592 13.2059C0.795362 14.6165 0.00202247 16.529 0 18.5239V19.7781H18.8154V18.5239C18.8134 16.529 18.02 14.6165 16.6095 13.2059C15.1989 11.7954 13.2851 11.002 11.2903 11Z" fill="#202020"/>
</svg>
