<svg width="271" height="231" viewBox="0 0 271 231" fill="none" xmlns="http://www.w3.org/2000/svg">
<path d="M444.689 154H313.38C302.689 154 292.436 149.944 284.876 142.724C277.316 135.503 273.069 125.711 273.069 115.5C273.082 105.297 277.335 95.5163 284.893 88.3061C292.451 81.0959 302.697 77.046 313.38 77.046H326.347C331.641 77.046 336.882 76.0502 341.773 74.1154C346.664 72.1805 351.107 69.3447 354.851 65.7696C358.594 62.1946 361.563 57.9503 363.589 53.2793C365.615 48.6083 366.657 43.6019 366.657 38.546C366.664 33.4862 365.626 28.4749 363.603 23.7986C361.58 19.1222 358.611 14.8726 354.868 11.2926C351.124 7.71272 346.678 4.87271 341.784 2.93503C336.89 0.99735 331.645 -3.61117e-06 326.347 0L40.3098 0C29.6189 0 19.3658 4.05624 11.8062 11.2764C4.24651 18.4965 -0.000459509 28.2892 -0.000459509 38.5C-0.00678888 43.5598 1.0312 48.5711 3.05415 53.2474C5.07709 57.9238 8.04533 62.1734 11.7891 65.7533C15.5329 69.3333 19.9788 72.1733 24.8726 74.111C29.7664 76.0486 35.0122 77.046 40.3098 77.046H183.31C194.001 77.046 204.254 81.1022 211.814 88.3224C219.374 95.5425 223.621 105.335 223.621 115.546C223.621 125.757 219.374 135.549 211.814 142.77C204.254 149.99 194.001 154.046 183.31 154.046H158.664C147.981 154.043 137.733 158.092 130.174 165.303C122.615 172.514 118.363 182.296 118.354 192.5C118.352 197.556 119.394 202.563 121.419 207.235C123.444 211.907 126.413 216.152 130.157 219.727C133.9 223.302 138.345 226.138 143.236 228.072C148.128 230.007 153.37 231.002 158.664 231H444.689C449.983 231.002 455.226 230.007 460.117 228.072C465.009 226.138 469.453 223.302 473.196 219.727C476.94 216.152 479.909 211.907 481.934 207.235C483.959 202.563 485.001 197.556 484.999 192.5C485.001 187.444 483.959 182.437 481.934 177.765C479.909 173.093 476.94 168.848 473.196 165.273C469.453 161.698 465.009 158.862 460.117 156.928C455.226 154.993 449.983 153.998 444.689 154Z" fill="url(#paint0_linear)"/>
<defs>
<linearGradient id="paint0_linear" x1="64.026" y1="61.9597" x2="404.727" y2="243.478" gradientUnits="userSpaceOnUse">
<stop stop-color="#415562"/>
<stop offset="1" stop-color="#292C31" stop-opacity="0"/>
</linearGradient>
</defs>
</svg>
