<svg width="257" height="227" viewBox="0 0 257 227" fill="none" xmlns="http://www.w3.org/2000/svg">
<path d="M-162.017 75.6667H-38.2881C-28.2144 75.6667 -18.5532 79.6527 -11.43 86.7478C-4.30679 93.8429 -0.305023 103.466 -0.305023 113.5C-0.317047 123.526 -4.32413 133.138 -11.446 140.223C-18.568 147.308 -28.2222 151.288 -38.2881 151.288H-50.5067C-55.4947 151.288 -60.4339 152.267 -65.0422 154.168C-69.6505 156.069 -73.8378 158.856 -77.3648 162.369C-80.8919 165.882 -83.6897 170.053 -85.5985 174.643C-87.5074 179.233 -88.4898 184.153 -88.4898 189.121C-88.4958 194.094 -87.5177 199.018 -85.6116 203.614C-83.7054 208.209 -80.9086 212.385 -77.3809 215.903C-73.8532 219.421 -69.664 222.212 -65.0527 224.116C-60.4414 226.02 -55.4985 227 -50.5067 227H219.017C229.091 227 238.752 223.014 245.875 215.919C252.998 208.824 257 199.201 257 189.167C257.006 184.195 256.028 179.27 254.122 174.675C252.216 170.079 249.419 165.903 245.891 162.385C242.363 158.867 238.174 156.076 233.563 154.172C228.952 152.268 224.009 151.288 219.017 151.288H84.2721C74.1983 151.288 64.5372 147.302 57.414 140.207C50.2907 133.112 46.289 123.489 46.289 113.455C46.289 103.421 50.2907 93.7977 57.414 86.7026C64.5372 79.6075 74.1983 75.6215 84.2721 75.6215H107.495C117.562 75.6245 127.218 71.6456 134.341 64.5596C141.463 57.4736 145.469 47.8604 145.478 37.8333C145.48 32.8646 144.498 27.9442 142.59 23.3534C140.682 18.7626 137.884 14.5913 134.357 11.0778C130.829 7.56438 126.642 4.77763 122.033 2.87686C117.424 0.976089 112.484 -0.00149536 107.495 -1.52588e-05H-162.017C-167.005 -0.00149536 -171.945 0.976089 -176.554 2.87686C-181.163 4.77763 -185.351 7.56438 -188.878 11.0778C-192.406 14.5913 -195.203 18.7626 -197.112 23.3534C-199.02 27.9442 -200.001 32.8646 -200 37.8333C-200.001 42.8021 -199.02 47.7225 -197.112 52.3133C-195.203 56.9041 -192.406 61.0754 -188.878 64.5889C-185.351 68.1023 -181.163 70.889 -176.554 72.7898C-171.945 74.6906 -167.005 75.6682 -162.017 75.6667Z" fill="url(#paint0_linear)"/>
<defs>
<linearGradient id="paint0_linear" x1="196.67" y1="166.113" x2="-130.184" y2="-0.86548" gradientUnits="userSpaceOnUse">
<stop stop-color="#415562"/>
<stop offset="1" stop-color="#292C31" stop-opacity="0"/>
</linearGradient>
</defs>
</svg>
