<svg width="56" height="56" viewBox="0 0 56 56" fill="none" xmlns="http://www.w3.org/2000/svg">
<rect x="-0.000488281" width="56" height="56" rx="15" fill="#E0E6F3"/>
<path d="M27.0513 26.6589L26.3849 28.4587H27.6916L27.0513 26.6589Z" fill="#F1BB2C"/>
<path d="M22.4911 22V32.9518H33.5834V22H22.4911ZM28.3627 30.158L27.9145 28.9712H26.2303L25.7889 30.158H24.8245L26.6649 25.3973H27.4935L29.3271 30.158H28.3627ZM30.6785 30.158H29.7685V26.6445H30.6785V30.158ZM30.6785 26.155H29.7685V25.2632H30.6785V26.155Z" fill="#F1BB2C"/>
<rect x="16.1492" y="15.7725" width="23.7665" height="23.7665" rx="8" stroke="#24272C" stroke-width="3"/>
<path d="M43.8768 19.9222L38.9157 19.9222" stroke="#24272C" stroke-width="3"/>
<path d="M16.9606 19.9222L11.9995 19.9222" stroke="#24272C" stroke-width="3"/>
<path d="M43.8768 30.4851L39.9157 30.4851" stroke="#24272C" stroke-width="3"/>
<path d="M15.9606 30.4851L11.9995 30.4851" stroke="#24272C" stroke-width="3"/>
<path d="M43.8768 25.2036L39.9157 25.2036" stroke="#24272C" stroke-width="3"/>
<path d="M15.9606 25.2036L11.9995 25.2036" stroke="#24272C" stroke-width="3"/>
<path d="M43.8768 35.7665L38.9157 35.7665" stroke="#24272C" stroke-width="3"/>
<path d="M16.9606 35.7665L11.9995 35.7665" stroke="#24272C" stroke-width="3"/>
<path d="M20.2989 12V15.9611" stroke="#24272C" stroke-width="3"/>
<path d="M30.8618 12V15.9611" stroke="#24272C" stroke-width="3"/>
<path d="M25.5804 12V15.9611" stroke="#24272C" stroke-width="3"/>
<path d="M36.1432 12V16.9611" stroke="#24272C" stroke-width="3"/>
<path d="M20.2989 39V43.5001" stroke="#24272C" stroke-width="3"/>
<path d="M30.8618 39V43.5001" stroke="#24272C" stroke-width="3"/>
<path d="M25.5804 39V43.5001" stroke="#24272C" stroke-width="3"/>
<path d="M36.1433 39V43.5001" stroke="#24272C" stroke-width="3"/>
</svg>
