<svg width="56" height="56" viewBox="0 0 56 56" fill="none" xmlns="http://www.w3.org/2000/svg">
<rect x="-0.000488281" width="56" height="56" rx="15" fill="#E0E6F3"/>
<g clip-path="url(#clip0)">
<path d="M22.3745 17.6875H23.312V19.625C23.312 20.1432 23.7313 20.5625 24.2495 20.5625H27.9995C28.5177 20.5625 28.937 20.1432 28.937 19.625V17.6875H29.8745C30.2535 17.6875 30.596 17.4596 30.7406 17.1089C30.8862 16.7583 30.8056 16.3554 30.5373 16.0871L26.7873 12.2746C26.4212 11.9085 25.8278 11.9085 25.4617 12.2746L21.7117 16.0871C21.4434 16.3554 21.3628 16.7582 21.5084 17.1089C21.6531 17.4596 21.9955 17.6875 22.3745 17.6875Z" fill="#F1BB2C"/>
<path d="M34.562 29C30.4198 29 27.062 32.3578 27.062 36.5C27.062 40.6421 30.4198 44 34.562 44C38.7042 44 42.062 40.6421 42.062 36.5C42.062 32.3578 38.7042 29 34.562 29ZM36.1329 39.8739C35.9299 39.9754 35.717 40.0554 35.4992 40.1159V40.3749C35.4992 40.8927 35.0794 41.3124 34.5617 41.3124C34.0439 41.3124 33.6242 40.8927 33.6242 40.3749V40.1452C33.2339 40.0469 32.87 39.8818 32.5617 39.6506C32.1475 39.3399 32.0635 38.7523 32.3742 38.3381C32.6849 37.9239 33.2725 37.8399 33.6867 38.1506C34.0617 38.4318 34.7829 38.4527 35.2944 38.1969C35.4999 38.0941 35.6109 37.9704 35.6109 37.9062C35.6109 37.794 35.6109 37.7767 35.4861 37.7101C35.2415 37.5796 34.809 37.4993 34.3907 37.4217C33.8323 37.3181 33.2548 37.211 32.7544 36.9439C32.0238 36.5539 31.6375 35.9141 31.6375 35.0937C31.6375 34.2723 32.1301 33.5549 32.9889 33.1256C33.1924 33.0238 33.4058 32.9432 33.6242 32.8826V32.6249C33.6242 32.1072 34.0439 31.6874 34.5617 31.6874C35.0794 31.6874 35.4992 32.1072 35.4992 32.6249V32.8545C35.8895 32.9528 36.2534 33.1181 36.5617 33.3493C36.9759 33.66 37.0599 34.2476 36.7492 34.6618C36.4385 35.076 35.851 35.16 35.4367 34.8493C35.0611 34.5676 34.3393 34.5468 33.8274 34.8026C33.6206 34.9059 33.5125 35.0272 33.5125 35.0936C33.5125 35.2059 33.5125 35.2231 33.6373 35.2897C33.8819 35.4203 34.3144 35.5006 34.7327 35.5781C35.2911 35.6817 35.8686 35.7889 36.369 36.0559C37.0996 36.4459 37.4859 37.0857 37.4859 37.9062C37.486 38.7268 36.9928 39.444 36.1329 39.8739Z" fill="#24272C"/>
<path d="M18.6245 25.25H35.4995C36.0173 25.25 36.437 24.8303 36.437 24.3125V23.375C36.437 22.8572 36.0173 22.4375 35.4995 22.4375H18.6245C18.1068 22.4375 17.687 22.8572 17.687 23.375V24.3125C17.687 24.8303 18.1068 25.25 18.6245 25.25Z" fill="#24272C"/>
<path d="M15.812 42.125V43.0625C15.812 43.5803 16.2318 44 16.7495 44H28.995C27.978 43.2427 27.1327 42.2874 26.4911 41.1875H16.7495C16.2318 41.1875 15.812 41.6072 15.812 42.125Z" fill="#24272C"/>
<path d="M15.812 32.75V33.6875C15.812 34.2053 16.2318 34.625 16.7495 34.625H25.3765C25.5829 33.612 25.9859 32.6787 26.4911 31.8125H16.7495C16.2318 31.8125 15.812 32.2322 15.812 32.75Z" fill="#24272C"/>
<path d="M14.8745 39.3125H25.6657C25.382 38.4189 25.187 37.4862 25.187 36.5H14.8745C14.3568 36.5 13.937 36.9197 13.937 37.4375V38.375C13.937 38.8928 14.3568 39.3125 14.8745 39.3125Z" fill="#24272C"/>
<path d="M14.8745 29.9375H27.8838C29.5858 28.2057 31.9479 27.125 34.562 27.125H14.8745C14.3568 27.125 13.937 27.5447 13.937 28.0625V29C13.937 29.5177 14.3568 29.9375 14.8745 29.9375Z" fill="#24272C"/>
</g>
<defs>
<clipPath id="clip0">
<rect width="32" height="32" fill="white" transform="translate(11.9995 12)"/>
</clipPath>
</defs>
</svg>
