<svg width="56" height="56" viewBox="0 0 56 56" fill="none" xmlns="http://www.w3.org/2000/svg">
<rect x="-0.000488281" width="56" height="56" rx="15" fill="#E0E6F3"/>
<g clip-path="url(#clip0)">
<path d="M28.6384 22.9628C28.482 22.692 28.193 22.5251 27.8802 22.5251C27.5675 22.5251 27.2784 22.692 27.1221 22.9628L16.3117 41.6868C16.1553 41.9577 16.1553 42.2914 16.3117 42.5623C16.4681 42.8331 16.7571 43 17.0699 43H38.6905C39.0032 43 39.2923 42.8331 39.4486 42.5623C39.605 42.2914 39.605 41.9577 39.4486 41.6868L28.6384 22.9628ZM27.8802 39.3388C27.3504 39.3388 26.9194 38.9077 26.9194 38.378C26.9194 37.8483 27.3505 37.4173 27.8802 37.4173C28.4099 37.4173 28.8409 37.8483 28.8409 38.378C28.8409 38.9077 28.41 39.3388 27.8802 39.3388ZM27.8802 29.873C28.3637 29.873 28.7557 30.2649 28.7557 30.7484V34.3227C28.7557 34.8062 28.3637 35.1982 27.8802 35.1982C27.3967 35.1982 27.0047 34.8062 27.0047 34.3227V30.7484C27.0047 30.2649 27.3967 29.873 27.8802 29.873Z" fill="#24272C"/>
<path d="M16.8337 18.0137C14.393 20.7516 13.058 24.2438 13.058 27.9415C13.058 28.425 13.45 28.817 13.9335 28.817H20.0191C20.5026 28.817 20.8946 28.425 20.8946 27.9415C20.8946 26.3387 21.4218 24.8169 22.394 23.5741L16.8337 18.0137Z" fill="#24272C"/>
<path d="M37.9272 16.7756C35.1894 14.335 31.6973 13 27.9995 13C24.3017 13 20.8096 14.335 18.0718 16.7756L23.6321 22.336C24.8749 21.3637 26.3967 20.8365 27.9995 20.8365C29.6023 20.8365 31.1241 21.3637 32.3669 22.336L37.9272 16.7756Z" fill="#F1BB2C"/>
<path d="M39.1653 18.0137L33.605 23.5741C34.5773 24.8168 35.1045 26.3386 35.1045 27.9415C35.1045 28.425 35.4965 28.817 35.98 28.817H42.0655C42.549 28.817 42.941 28.425 42.941 27.9415C42.941 24.2438 41.606 20.7516 39.1653 18.0137Z" fill="#24272C"/>
</g>
<defs>
<clipPath id="clip0">
<rect width="30" height="30" fill="white" transform="translate(12.9995 13)"/>
</clipPath>
</defs>
</svg>
