<svg width="62" height="62" viewBox="0 0 62 62" fill="none" xmlns="http://www.w3.org/2000/svg">
<path d="M6.78125 43.1094C6.39586 43.1094 6.02625 43.2625 5.75374 43.535C5.48122 43.8075 5.32812 44.1771 5.32812 44.5625V57.1562H14.0469V44.5625C14.0469 44.1771 13.8938 43.8075 13.6213 43.535C13.3488 43.2625 12.9791 43.1094 12.5938 43.1094H6.78125Z" fill="#FAC332"/>
<path d="M21.3125 39.2344C20.9271 39.2344 20.5575 39.3875 20.285 39.66C20.0125 39.9325 19.8594 40.3021 19.8594 40.6875V57.1562H28.5781V40.6875C28.5781 40.3021 28.425 39.9325 28.1525 39.66C27.88 39.3875 27.5104 39.2344 27.125 39.2344H21.3125Z" fill="#FAC332"/>
<path d="M35.8438 31.4844C35.4584 31.4844 35.0887 31.6375 34.8162 31.91C34.5437 32.1825 34.3906 32.5521 34.3906 32.9375V57.1562H43.1094V32.9375C43.1094 32.5521 42.9563 32.1825 42.6838 31.91C42.4113 31.6375 42.0416 31.4844 41.6562 31.4844H35.8438Z" fill="#FAC332"/>
<path d="M50.375 19.8594C49.9896 19.8594 49.62 20.0125 49.3475 20.285C49.075 20.5575 48.9219 20.9271 48.9219 21.3125V57.1562H57.6406V21.3125C57.6406 20.9271 57.4875 20.5575 57.215 20.285C56.9425 20.0125 56.5729 19.8594 56.1875 19.8594H50.375Z" fill="#FAC332"/>
<path d="M60.0625 58.6094H1.9375C1.55211 58.6094 1.1825 58.7625 0.909985 59.035C0.637472 59.3075 0.484375 59.6771 0.484375 60.0625C0.484375 60.4479 0.637472 60.8175 0.909985 61.09C1.1825 61.3625 1.55211 61.5156 1.9375 61.5156H60.0625C60.4479 61.5156 60.8175 61.3625 61.09 61.09C61.3625 60.8175 61.5156 60.4479 61.5156 60.0625C61.5156 59.6771 61.3625 59.3075 61.09 59.035C60.8175 58.7625 60.4479 58.6094 60.0625 58.6094V58.6094Z" fill="#FAC332"/>
<path d="M5.32813 36.8125C5.32812 37.1979 5.48122 37.5675 5.75374 37.84C6.02625 38.1125 6.39586 38.2656 6.78125 38.2656C14.4848 38.2656 25.9349 33.7142 36.6633 26.3875C41.8914 22.817 46.5351 18.8443 50.0926 14.8988C52.5666 12.1545 54.4762 9.48383 55.8054 6.9141L56.7065 10.9711C57.1759 12.8382 59.9128 12.2144 59.5435 10.3407L57.606 1.62194C57.5591 1.41993 57.4699 1.23019 57.3442 1.06524C57.2185 0.90029 57.0592 0.763899 56.8769 0.665083C56.6946 0.566267 56.4934 0.507277 56.2866 0.492012C56.0798 0.476747 55.8721 0.505556 55.6772 0.576533L47.9272 3.48278C47.7485 3.5498 47.5848 3.65134 47.4454 3.78163C47.3059 3.91192 47.1935 4.0684 47.1146 4.24213C46.9551 4.59299 46.9416 4.99283 47.0769 5.35368C47.2122 5.71454 47.4854 6.00685 47.8362 6.16632C48.1871 6.32578 48.5869 6.33934 48.9478 6.204L53.7924 4.3876C51.0451 10.5514 44.2719 17.6724 35.0242 23.9875C24.909 30.8956 13.8226 35.3594 6.78125 35.3594C6.39586 35.3594 6.02625 35.5125 5.75374 35.785C5.48122 36.0575 5.32813 36.4271 5.32813 36.8125V36.8125Z" fill="#FAC332"/>
</svg>
