<svg width="415" height="452" viewBox="0 0 415 452" fill="none" xmlns="http://www.w3.org/2000/svg">
<path d="M365.298 355.318H203.395C190.213 355.318 177.571 350.224 168.25 341.155C158.929 332.087 153.692 319.788 153.692 306.964C153.708 294.15 158.951 281.865 168.271 272.81C177.59 263.754 190.223 258.667 203.395 258.667H219.383C225.91 258.667 232.373 257.417 238.403 254.987C244.433 252.557 249.912 248.995 254.528 244.505C259.143 240.015 262.804 234.684 265.302 228.818C267.8 222.951 269.085 216.663 269.085 210.313C269.093 203.958 267.813 197.664 265.319 191.791C262.825 185.918 259.165 180.581 254.549 176.084C249.933 171.588 244.451 168.021 238.417 165.588C232.383 163.154 225.915 161.901 219.383 161.901H-133.298C-146.48 161.901 -159.122 166.996 -168.443 176.064C-177.763 185.132 -183 197.431 -183 210.255C-183.008 216.61 -181.728 222.904 -179.234 228.778C-176.739 234.651 -173.08 239.988 -168.464 244.484C-163.847 248.981 -158.366 252.548 -152.332 254.981C-146.298 257.415 -139.83 258.667 -133.298 258.667H43.0203C56.2022 258.667 68.8441 263.762 78.1651 272.83C87.4861 281.898 92.7225 294.197 92.7225 307.022C92.7225 319.846 87.4861 332.145 78.1651 341.213C68.8441 350.281 56.2022 355.376 43.0203 355.376H12.6319C-0.540848 355.372 -13.1761 360.457 -22.4962 369.514C-31.8163 378.57 -37.0585 390.857 -37.0703 403.672C-37.0722 410.023 -35.788 416.311 -33.2909 422.179C-30.7938 428.046 -27.1329 433.378 -22.5172 437.868C-17.9015 442.359 -12.4216 445.92 -6.39061 448.35C-0.359573 450.779 6.10439 452.028 12.6319 452.026H365.298C371.825 452.028 378.289 450.779 384.32 448.35C390.351 445.92 395.831 442.359 400.447 437.868C405.063 433.378 408.724 428.046 411.221 422.179C413.718 416.311 415.002 410.023 415 403.672C415.002 397.322 413.718 391.033 411.221 385.166C408.724 379.298 405.063 373.967 400.447 369.476C395.831 364.986 390.351 361.424 384.32 358.995C378.289 356.566 371.825 355.316 365.298 355.318Z" fill="url(#paint0_linear)"/>
<path d="M-180.526 161.252H-45.4262C-34.4266 161.252 -23.8776 157.012 -16.0997 149.466C-8.32184 141.919 -3.9523 131.684 -3.9523 121.011C-3.96542 110.347 -8.34079 100.124 -16.1172 92.5874C-23.8937 85.0511 -34.4352 80.8181 -45.4262 80.8181H-58.7677C-64.2141 80.8181 -69.6072 79.7772 -74.6391 77.7549C-79.6709 75.7326 -84.243 72.7685 -88.0942 69.0317C-91.9454 65.295 -95.0003 60.8589 -97.0846 55.9766C-99.1689 51.0943 -100.242 45.8615 -100.242 40.577C-100.248 35.2884 -99.1802 30.0505 -97.0988 25.1626C-95.0175 20.2748 -91.9636 15.833 -88.1117 12.0912C-84.2599 8.34935 -79.6856 5.38091 -74.6505 3.3556C-69.6155 1.3303 -64.2183 0.287838 -58.7677 0.287842L235.526 0.287842C246.526 0.287842 257.075 4.52751 264.853 12.0742C272.63 19.6208 277 29.8563 277 40.5289C277.006 45.8175 275.939 51.0555 273.857 55.9433C271.776 60.8311 268.722 65.2729 264.87 69.0147C261.018 72.7566 256.444 75.725 251.409 77.7503C246.374 79.7756 240.977 80.8181 235.526 80.8181H88.3978C77.3982 80.8181 66.8491 85.0577 59.0713 92.6044C51.2934 100.151 46.9239 110.387 46.9239 121.059C46.9239 131.732 51.2934 141.967 59.0713 149.514C66.8491 157.061 77.3982 161.3 88.3978 161.3H113.755C124.747 161.297 135.291 165.529 143.068 173.066C150.845 180.603 155.219 190.828 155.229 201.493C155.231 206.778 154.159 212.012 152.076 216.895C149.992 221.778 146.937 226.214 143.085 229.951C139.234 233.689 134.661 236.653 129.629 238.674C124.596 240.696 119.202 241.736 113.755 241.734H-180.526C-185.973 241.736 -191.367 240.696 -196.399 238.674C-201.432 236.653 -206.005 233.689 -209.856 229.951C-213.708 226.214 -216.763 221.778 -218.846 216.895C-220.93 212.012 -222.002 206.778 -222 201.493C-222.002 196.208 -220.93 190.975 -218.846 186.092C-216.763 181.209 -213.708 176.772 -209.856 173.035C-206.005 169.298 -201.432 166.334 -196.399 164.312C-191.367 162.29 -185.973 161.251 -180.526 161.252Z" fill="url(#paint1_linear)"/>
<defs>
<linearGradient id="paint0_linear" x1="317.5" y1="161.901" x2="39.3494" y2="313.125" gradientUnits="userSpaceOnUse">
<stop stop-color="#464B54"/>
<stop offset="1" stop-color="#292C31" stop-opacity="0"/>
</linearGradient>
<linearGradient id="paint1_linear" x1="-86.5" y1="-191.02" x2="257.312" y2="215.595" gradientUnits="userSpaceOnUse">
<stop offset="0.247592" stop-color="#464B54"/>
<stop offset="1" stop-color="#292C31" stop-opacity="0"/>
</linearGradient>
</defs>
</svg>
