<svg width="415" height="291" viewBox="0 0 415 291" fill="none" xmlns="http://www.w3.org/2000/svg">
<path d="M365.298 194.318H203.395C190.213 194.318 177.571 189.224 168.25 180.155C158.929 171.087 153.692 158.788 153.692 145.964C153.708 133.15 158.951 120.865 168.271 111.81C177.59 102.754 190.223 97.6674 203.395 97.6674H219.383C225.91 97.6674 232.373 96.4167 238.403 93.9867C244.433 91.5566 249.912 87.9949 254.528 83.5048C259.143 79.0147 262.804 73.6842 265.302 67.8176C267.8 61.951 269.085 55.6632 269.085 49.3132C269.093 42.9584 267.813 36.6644 265.319 30.7911C262.825 24.9179 259.165 19.5805 254.549 15.0843C249.933 10.5881 244.451 7.02115 238.417 4.58751C232.383 2.15387 225.915 0.901241 219.383 0.901245L-133.298 0.901245C-146.48 0.901245 -159.122 5.99569 -168.443 15.0639C-177.763 24.132 -183 36.4311 -183 49.2554C-183.008 55.6103 -181.728 61.9043 -179.234 67.7775C-176.739 73.6508 -173.08 78.9882 -168.464 83.4844C-163.847 87.9806 -158.366 91.5475 -152.332 93.9811C-146.298 96.4148 -139.83 97.6674 -133.298 97.6674H43.0203C56.2022 97.6674 68.8441 102.762 78.1651 111.83C87.4861 120.898 92.7225 133.197 92.7225 146.022C92.7225 158.846 87.4861 171.145 78.1651 180.213C68.8441 189.281 56.2022 194.376 43.0203 194.376H12.6319C-0.540848 194.372 -13.1761 199.457 -22.4962 208.514C-31.8163 217.57 -37.0585 229.857 -37.0703 242.672C-37.0722 249.023 -35.788 255.311 -33.2909 261.179C-30.7938 267.046 -27.1329 272.378 -22.5172 276.868C-17.9015 281.359 -12.4216 284.92 -6.39061 287.35C-0.359573 289.779 6.10439 291.028 12.6319 291.026H365.298C371.825 291.028 378.289 289.779 384.32 287.35C390.351 284.92 395.831 281.359 400.447 276.868C405.063 272.378 408.724 267.046 411.221 261.179C413.718 255.311 415.002 249.023 415 242.672C415.002 236.322 413.718 230.033 411.221 224.166C408.724 218.298 405.063 212.967 400.447 208.476C395.831 203.986 390.351 200.424 384.32 197.995C378.289 195.566 371.825 194.316 365.298 194.318Z" fill="url(#paint0_linear)"/>
<defs>
<linearGradient id="paint0_linear" x1="317.5" y1="0.901245" x2="39.3494" y2="152.125" gradientUnits="userSpaceOnUse">
<stop stop-color="#464B54"/>
<stop offset="1" stop-color="#292C31" stop-opacity="0"/>
</linearGradient>
</defs>
</svg>
